<?xml version="1.0" encoding="UTF-8" standalone="no"?>
<svg
   id="Layer_1"
   data-name="Layer 1"
   viewBox="0 0 108.95 122.88"
   version="1.1"
   sodipodi:docname="digital-online-media-icon.svg"
   inkscape:version="1.3.2 (091e20e, 2023-11-25)"
   xmlns:inkscape="http://www.inkscape.org/namespaces/inkscape"
   xmlns:sodipodi="http://sodipodi.sourceforge.net/DTD/sodipodi-0.dtd"
   xmlns="http://www.w3.org/2000/svg"
   xmlns:svg="http://www.w3.org/2000/svg">
  <sodipodi:namedview
     id="namedview1"
     pagecolor="#ffffff"
     bordercolor="#666666"
     borderopacity="1.0"
     inkscape:showpageshadow="2"
     inkscape:pageopacity="0.0"
     inkscape:pagecheckerboard="0"
     inkscape:deskcolor="#d1d1d1"
     inkscape:zoom="1.920573"
     inkscape:cx="54.671185"
     inkscape:cy="61.17966"
     inkscape:window-width="736"
     inkscape:window-height="480"
     inkscape:window-x="434"
     inkscape:window-y="181"
     inkscape:window-maximized="0"
     inkscape:current-layer="Layer_1" />
  <defs
     id="defs1">
    <style
       id="style1">.cls-1{fill-rule:evenodd;}</style>
  </defs>
  <title
     id="title1">digital-online-media</title>
  <path
     class="cls-1"
     d="M35.48,0H79.61A13.28,13.28,0,0,1,92.88,13.28V39.85H88.29V13.15H26.78v4.5H22.2V13.26A13.25,13.25,0,0,1,35.48,0ZM20.6,40.08l9.12,6.36a1.42,1.42,0,0,1,.42.39,1.36,1.36,0,0,1-.35,1.9L20.69,55a1.39,1.39,0,0,1-.87.3A1.37,1.37,0,0,1,18.45,54V41.19a1.43,1.43,0,0,1,.26-.78,1.36,1.36,0,0,1,1.89-.33ZM5,25.67H43.89a5,5,0,0,1,3.5,1.45l.09.1a4.92,4.92,0,0,1,1.37,3.41V58.84a5,5,0,0,1-5,5H5a5,5,0,0,1-5-5V30.63a5,5,0,0,1,5-5Zm41.22,8.41H2.66V58.84A2.32,2.32,0,0,0,5,61.15H43.89a2.29,2.29,0,0,0,2.3-2.31V34.08Zm37,53-9.59,9.19a1.48,1.48,0,0,1-1.13.51A1.52,1.52,0,0,1,71,95.25V87.07H65.92A3.93,3.93,0,0,1,62,83.18V53.34a3.93,3.93,0,0,1,3.89-3.89h39.14A3.91,3.91,0,0,1,109,53.34V83.18a3.91,3.91,0,0,1-3.89,3.89Zm-10.12-12a2,2,0,1,1,0-4h21a2,2,0,1,1,0,4Zm0-10.63a2,2,0,0,1,0-4H98.83a2,2,0,0,1,0,4Zm19.77,31V109.6a13.28,13.28,0,0,1-13.27,13.28H35.48A13.28,13.28,0,0,1,22.2,109.6V71.83h4.58v32.61H88.29v-9ZM57.52,108.6a5.46,5.46,0,1,1-5.46,5.45,5.44,5.44,0,0,1,5.46-5.45Z"
     id="path1"
     style="fill:#f9f9f9" />
</svg>
